<?xml version="1.0" encoding="UTF-8"?>
<svg id="Layer_1" xmlns="http://www.w3.org/2000/svg" version="1.1" xmlns:xlink="http://www.w3.org/1999/xlink" viewBox="0 0 500 500">
  <!-- Generator: Adobe Illustrator 30.1.0, SVG Export Plug-In . SVG Version: 2.1.1 Build 136)  -->
  <defs>
    <style>
      .st0 {
        fill: #ff486b;
      }

      .st1 {
        fill: #494949;
      }

      .st2 {
        fill: #0a0000;
      }

      .st3 {
        fill: #fff;
      }

      .st4 {
        fill: url(#linear-gradient1);
      }

      .st5 {
        fill: none;
      }

      .st6 {
        clip-path: url(#clippath-1);
      }

      .st7 {
        fill: url(#linear-gradient);
      }

      .st8 {
        clip-path: url(#clippath);
      }
    </style>
    <clipPath id="clippath">
      <path class="st5" d="M273.91,200.49c0-15.81,6.31-30.54,17.76-41.47,3.19-3.05,6.67-5.69,10.4-7.89.41-.25.82-.48,1.25-.71s.85-.47,1.28-.69c.4-.22.81-.43,1.22-.62.45-.23.91-.45,1.37-.66.44-.21.88-.4,1.32-.59.45-.19.89-.38,1.35-.56.45-.18.91-.36,1.36-.52l3.96-1.32c.21-.06.41-.12.62-.16l.25-.08c.1-.03.21-.06.3-.08l.26-.07.36-.08c.34-.1.69-.18,1.04-.26.56-.14,1.02-.25,1.47-.33l1.53-.29c.26-.06.52-.1.78-.14,3.67-.62,7.5-.88,11.27-.76l.55.03c1.37.08,2.71.19,4.07.3h.08s.08.01.08.01h.07c3.46.32,6.94.74,10.35,1.26.84.14,1.69.27,2.56.43,17.4,3.01,34.07,8.91,49.58,17.54,50.03,27.87,81.12,80.75,81.12,137.98,0,7.57-.55,15.21-1.62,22.71-.76,5.24-1.79,10.49-3.08,15.64-10.54,42.22-38.09,78.12-75.99,99.37-.37-1.48-.74-2.98-1.13-4.48-3.79-14.67-8.45-29.37-13.85-43.72l-.32-.84c-8.91-23.56-20-46.47-32.95-68.1-17.21-28.81-37.84-55.65-61.34-79.77-.48-.48-.92-.92-1.36-1.37-.14-.16-.29-.32-.45-.48-10.01-10.64-15.52-24.56-15.52-39.21Z"/>
    </clipPath>
    <linearGradient id="linear-gradient" x1="265.87" y1="296.98" x2="493.89" y2="296.98" gradientUnits="userSpaceOnUse">
      <stop offset="0" stop-color="#ef00ff"/>
      <stop offset="1" stop-color="#8209ff"/>
    </linearGradient>
    <clipPath id="clippath-1">
      <path class="st5" d="M226.09,200.49c0-15.81-6.31-30.54-17.76-41.47-3.19-3.05-6.67-5.69-10.4-7.89-.41-.25-.82-.48-1.25-.71s-.85-.47-1.28-.69c-.4-.22-.81-.43-1.22-.62-.45-.23-.91-.45-1.37-.66-.44-.21-.88-.4-1.32-.59-.45-.19-.89-.38-1.35-.56-.45-.18-.91-.36-1.36-.52l-3.96-1.32c-.21-.06-.41-.12-.62-.16l-.25-.08c-.1-.03-.21-.06-.3-.08l-.26-.07-.36-.08c-.34-.1-.69-.18-1.04-.26-.56-.14-1.02-.25-1.47-.33l-1.53-.29c-.26-.06-.52-.1-.78-.14-3.67-.62-7.5-.88-11.27-.76l-.55.03c-1.37.08-2.71.19-4.07.3h-.08s-.08.01-.08.01h-.07c-3.46.32-6.94.74-10.35,1.26-.84.14-1.69.27-2.56.43-17.4,3.01-34.07,8.91-49.58,17.54-50.03,27.87-81.12,80.75-81.12,137.98,0,7.57.55,15.21,1.62,22.71.76,5.24,1.79,10.49,3.08,15.64,10.54,42.22,38.09,78.12,75.99,99.37.37-1.48.74-2.98,1.13-4.48,3.79-14.67,8.45-29.37,13.85-43.72l.32-.84c8.91-23.56,20-46.47,32.95-68.1,17.21-28.81,37.84-55.65,61.34-79.77.48-.48.92-.92,1.36-1.37.14-.16.29-.32.45-.48,10.01-10.64,15.52-24.56,15.52-39.21Z"/>
    </clipPath>
    <linearGradient id="linear-gradient1" x1="3274.84" y1="296.98" x2="3502.86" y2="296.98" gradientTransform="translate(-3268.74 593.96) scale(1 -1)" xlink:href="#linear-gradient"/>
  </defs>
  <path class="st1" d="M343.02.2l-57.19,57.19c-1.51-.56-3.05-1.11-4.6-1.59C284.5,24.54,310.91.2,343.02.2Z"/>
  <path class="st1" d="M215.23,56.14c-1.46.49-2.89,1-4.32,1.57L153.4.2c32.22,0,58.72,24.52,61.82,55.94Z"/>
  <path class="st0" d="M380.19,438.44c0,2.63-.1,5.24-.3,7.79-8.05,4.48-16.51,8.27-25.26,11.33-1.94-6.1-4.43-11.93-7.42-17.46-.32-3.22-.67-6.43-1.07-9.62.71-.49,1.43-1,2.13-1.53,6.56-4.76,12.82-10.05,18.62-15.7,2.64-2.57,5.21-5.25,7.68-8.03,3.64,10.39,5.62,21.58,5.62,33.21Z"/>
  <path class="st1" d="M380.19,438.44c0,2.63-.1,5.24-.3,7.79-1.53,20.08-8.99,38.51-20.6,53.56v-11.85c.01-10.58-1.64-20.8-4.66-30.39-1.94-6.1-4.43-11.93-7.42-17.46-1.36-2.52-2.83-4.96-4.41-7.34,1.13-.74,2.24-1.5,3.34-2.28.71-.49,1.43-1,2.13-1.53,6.56-4.76,12.82-10.05,18.62-15.7,2.64-2.57,5.21-5.25,7.68-8.03,3.64,10.39,5.62,21.58,5.62,33.21Z"/>
  <path class="st1" d="M157.38,432.97c-.29.41-.56.84-.82,1.26-4.4,6.94-7.96,14.46-10.58,22.42-3.2,9.84-4.95,20.37-4.95,31.3v11.85c-11.94-15.48-19.48-34.51-20.71-55.24-.12-2.03-.19-4.05-.19-6.12,0-11.52,1.94-22.58,5.51-32.89,6.29,7,13.17,13.44,20.51,19.24.73.58,1.46,1.15,2.2,1.72,1.75,1.32,3.17,2.38,4.44,3.27.32.23.65.47.93.67.22.16.45.32.69.48l.18.12c.12.1.25.18.37.26.81.55,1.61,1.11,2.43,1.65Z"/>
  <g>
    <path class="st1" d="M341.92,134.4c-.51-.05-1.03-.11-1.54-.16-.89-.1-1.79-.19-2.68-.26-.03-.01-.07-.01-.1-.01l-.36-.03c-1.29-.14-2.5-.23-3.66-.29l-.81-.04c-4.55-.19-9.24.11-13.59.85-1.92.3-3.83.7-5.81,1.22-.47.12-.95.25-1.42.38-.43.11-.85.25-1.28.37-.43.12-.85.26-1.28.4h-.01c-1-.38-2.01-.76-3.01-1.11-.88-.32-1.75-.62-2.61-.91-17.3-5.87-35.41-8.84-53.82-8.84-1.25,0-2.52.01-3.77.05h-.33c-.81.01-1.61.04-2.41.07-.08.01-.15.01-.23.01-.7.03-1.39.05-2.02.1-.67.03-1.33.07-2.01.11h-.14c-.11.01-.22.01-.32.03-.66.04-1.33.1-1.99.15-.45.03-.93.07-1.44.11l-.63.06c-.4.04-.81.08-1.22.12-.14,0-.27.01-.44.04-.8.07-1.61.16-2.41.26-.33.03-.67.07-1,.11-.93.12-1.86.23-2.69.36-.43.05-.84.11-1.25.18h-.11c-1.1.16-2.19.34-3.24.52-1.31.21-2.61.44-3.82.67-1.18.22-2.35.45-3.49.71l-.48.1c-1.04.22-2.09.45-3.12.7l-.58.12c-1.18.29-2.36.59-3.6.92l-.63.16c-.84.22-1.66.44-2.49.69l-1.64.48c-.93.27-1.84.55-2.74.82-1.25.38-2.47.78-3.66,1.2-.89.3-1.81.63-2.74.96-.84.3-1.69.62-2.54.93-.08.03-.17.07-.25.1l-.22-.07c-.08-.03-.15-.05-.18-.05l-.27-.1c-.71-.22-1.46-.44-2.1-.6l-.14-.04c-.25-.07-.48-.14-.73-.21-.21-.06-.41-.11-.62-.15-.38-.1-.76-.19-1.06-.26-.16-.04-.33-.08-.49-.12l-.41-.4h-1.53c-.67-.14-1.35-.26-2.01-.37-4.43-.74-9.11-1.04-13.69-.85h-.73s-.14.05-.14.05c-1.24.07-2.46.18-3.7.29h-.03s-.1,0-.14.01h-.04c-.92.08-1.86.18-2.78.27s-1.84.19-2.78.32c-.47.04-.95.11-1.42.16,1.46-6.43,3.59-12.7,6.35-18.69,15.57-33.87,49.71-55.75,86.99-55.75,8.8,0,17.51,1.2,25.87,3.53,27.65,7.75,50.15,27.31,61.74,53.64,2.42,5.46,4.3,11.13,5.64,16.95Z"/>
    <path class="st3" d="M294.71,142.05c.11.04.25.08.41.14.03,0,.04,0,.07.01h.04c-.18-.06-.34-.1-.52-.15ZM203.38,142.58h.01l1.77-.54c-.6.18-1.2.36-1.79.54Z"/>
  </g>
  <g>
    <path class="st2" d="M374.5,390.34c-4.43,5.69-9.24,11.08-14.32,16.03-5.48,5.35-11.38,10.32-17.57,14.82-5.47,3.99-11.24,7.64-17.18,10.87-2.19,1.2-4.34,2.31-6.4,3.31-15.54,7.57-32.13,12.51-49.3,14.64-6.54.82-13.19,1.24-19.78,1.24-31.17,0-61.31-9.07-87.17-26.24l-.63-.4c-.6-.41-1.21-.84-1.81-1.25l-.49-.34c-.16-.11-.33-.22-.52-.37-.29-.19-.56-.4-.91-.65-1.25-.88-2.6-1.88-4.23-3.12-.69-.54-1.39-1.09-2.08-1.62-7.53-5.95-14.57-12.66-20.93-19.94-2.01-2.28-3.92-4.6-5.75-6.94h-.01c.33-.85.66-1.7.99-2.54.41-1.06.84-2.12,1.26-3.17.34-.85.69-1.72,1.04-2.57.52-1.28,1.06-2.56,1.59-3.83.74-1.77,1.51-3.53,2.28-5.29.47-1.06.93-2.12,1.42-3.17.69-1.54,1.39-3.08,2.1-4.6.54-1.17,1.09-2.34,1.64-3.49.65-1.35,1.29-2.69,1.94-4.03.65-1.33,1.32-2.67,1.98-4,.66-1.33,1.33-2.65,2.02-3.99,2.05-3.97,4.15-7.92,6.32-11.82,2.16-3.9,4.4-7.77,6.68-11.59,16.82-28.16,37-54.4,59.93-77.94.55-.55,1.1-1.09,1.64-1.65l.29-.32c11.72-12.45,18.18-28.73,18.18-45.86,0-18.46-7.37-35.67-20.74-48.44-3.85-3.67-8.04-6.83-12.58-9.46h-.01c.59-.19,1.18-.37,1.79-.55l1.69-.49c.71-.21,1.42-.4,2.14-.58l.69-.19c.93-.25,1.87-.48,2.82-.71l.56-.14c1.11-.27,2.23-.52,3.39-.77l.55-.11c1.06-.23,2.1-.45,3.23-.66,1.2-.23,2.39-.44,3.61-.63,1.03-.18,2.03-.34,3.08-.49h.15c.33-.07.65-.11,1.06-.16.88-.12,1.76-.23,2.64-.34.23-.04.48-.07.71-.08l.21-.03c.73-.1,1.48-.16,2.23-.25l.38-.03c.41-.04.81-.08,1.21-.11l.65-.07c.4-.03.81-.07,1.21-.08l.19-.03c.59-.05,1.2-.1,1.79-.14h.14c.11-.01.22-.01.32-.03.59-.03,1.18-.07,1.84-.1.62-.03,1.22-.07,1.75-.08.16,0,.32,0,.47-.01.71-.04,1.42-.05,2.06-.07h.47c1.18-.04,2.36-.05,3.55-.05.96,0,1.92.01,2.9.03.76.01,1.51.03,2.27.07,1.26.03,2.54.08,3.81.15.63.04,1.28.08,1.91.12.88.06,1.76.12,2.64.21.81.05,1.61.14,2.41.22.14.01.27.03.41.04,1.02.1,2.03.21,3.04.34.73.08,1.46.18,2.19.27,1.42.19,2.82.41,4.21.63,1.06.16,2.1.36,3.16.56,1.06.19,2.1.4,3.16.62.95.19,1.91.4,2.86.62.27.06.55.11.81.18.77.18,1.55.36,2.31.56,1.18.29,2.36.59,3.53.92,1,.26,1.99.54,2.98.84.04.01.1.03.18.05.11.04.25.08.41.14.44.15.98.34,1.13.38l-1.02.6-1.51,1.15c-.74.48-1.36.91-1.92,1.31-.55.38-1.1.77-1.59,1.15-.76.56-1.5,1.13-2.23,1.72s-1.42,1.17-2.08,1.76c-.34.3-.69.62-1.06.95-.37.33-.73.67-1.09,1.02-.63.6-1.25,1.22-1.84,1.86-.17.16-.32.33-.47.49-.43.44-.82.88-1.21,1.32-.34.37-.67.74-.99,1.13-.27.33-.55.65-.82.99-.23.26-.44.54-.6.74-.37.45-.73.92-1.03,1.32-.27.36-.55.74-.76,1.03-.37.51-.74,1.03-1.1,1.54-.14.19-.27.38-.4.59-.36.54-.71,1.07-1.04,1.61l-1.04,1.07v.66c-.06.1-.11.18-.16.27-.14.22-.27.45-.4.7-.27.45-.52.92-.78,1.4-.08.15-.21.36-.32.6-.23.43-.45.87-.66,1.31-.16.29-.29.55-.38.77-.14.26-.25.52-.37.8-.12.26-.25.54-.37.81-.27.58-.52,1.15-.76,1.76-.18.41-.34.84-.49,1.26-.07.16-.14.33-.21.48-.07.17-.12.33-.18.48-.03.11-.07.21-.1.29-.51,1.35-.98,2.78-1.46,4.44l-.05.22c-.08.27-.16.55-.23.84-.15.52-.29,1.07-.4,1.53l-.08.36c-.18.74-.34,1.5-.49,2.25l-.04.16c-.15.76-.3,1.54-.4,2.24-.04.26-.08.52-.12.78-.08.49-.15.99-.21,1.48-.06.32-.1.62-.11.84-.1.82-.18,1.66-.23,2.41-.07.78-.12,1.57-.15,2.36-.01.16-.01.33-.01.48-.04.87-.06,1.72-.06,2.57,0,17.14,6.46,33.41,18.18,45.86l.29.32c.54.56,1.07,1.1,1.58,1.61,22.98,23.59,43.16,49.82,59.98,78,3.16,5.29,6.21,10.65,9.14,16.08.74,1.36,1.47,2.72,2.19,4.08.71,1.37,1.43,2.75,2.13,4.12.84,1.64,1.68,3.3,2.5,4.96.55,1.1,1.09,2.21,1.62,3.33.67,1.39,1.33,2.79,1.99,4.18.78,1.65,1.55,3.31,2.31,4.99.52,1.14,1.03,2.28,1.54,3.42,0,.01.01.01.01.03.62,1.4,1.22,2.8,1.83,4.21.47,1.04.91,2.1,1.35,3.16.44,1.04.88,2.09,1.32,3.15.01.04.04.1.06.16.44,1.06.88,2.13,1.31,3.2.67,1.66,1.33,3.33,1.97,4.99Z"/>
    <path class="st3" d="M310.9,146.48l-.47.18c.15-.07.32-.12.49-.18h-.03Z"/>
  </g>
  <g class="st8">
    <rect class="st7" x="265.87" y="136.4" width="228.02" height="321.16"/>
  </g>
  <g class="st6">
    <rect class="st4" x="6.11" y="136.4" width="228.02" height="321.16" transform="translate(240.23 593.96) rotate(-180)"/>
  </g>
  <circle cx="143.32" cy="205.49" r="14.67"/>
  <circle cx="134.63" cy="293.42" r="14.67"/>
  <circle cx="49.2" cy="253.21" r="14.67"/>
  <circle cx="63.86" cy="356.48" r="14.67"/>
  <circle cx="359.02" cy="205.49" r="14.67"/>
  <circle cx="367.71" cy="293.42" r="14.67"/>
  <circle cx="453.15" cy="253.21" r="14.67"/>
  <circle cx="438.48" cy="356.48" r="14.67"/>
</svg>